name processed_emg_signals
nRows=44
nColumns=7
 
endheader
time	RGLTMED	RRF	RADDLONG	RST	RTA	RGM
3.2251999999999974	-0.0187685992568731	-0.0126649904996156	-0.0007629534229636	0.007171737961471	-0.0047302991151809	-0.0013733142986893
3.2351999999999976	0.0083924597129225	-0.0410467721521854	0.0291447304189205	-0.0086976448073983	0.0154116097837686	-0.0022888556122779
3.2451999999999974	-0.0187685992568731	-0.0337224416434764	0.0065613770857453	0.012054624967277	-0.0126649904996156	0.0373845994472503
3.2551999999999977	-0.0126649904996156	-0.0190737806260585	-0.0245670266449451	-0.0242618471384048	-0.0108339078724384	0.0221255794167518
3.2651999999999974	-0.009308005683124	-0.0151064340025186	-0.0419623106718063	-0.0028992164880037	-0.0111390883103013	0.0083924597129225
3.2751999999999977	-0.0138857122510671	-0.0239566676318645	-0.0621042214334011	0.0123598054051399	-0.0181582383811473	0.0178530532866716
3.2851999999999975	0.0053406553342938	-0.0349431633949279	-0.0871290192008018	0.0035095727071166	-0.025177389383316	0.0337224379181861
3.2951999999999977	-0.0022888556122779	-0.0166323371231555	-0.1020828559994697	-0.0086976448073983	0.0083924597129225	0.0056458357721567
3.3051999999999975	-0.0196841396391391	-0.0288395546376705	-0.0349431633949279	-0.0050354795530438	-0.0010681338608264	0.0321965329349041
3.3151999999999977	-0.0267032906413078	-0.0056458404287695	0.0389105044305324	0.0077820988371968	-0.0071717426180839	0.0285343676805496
3.3251999999999975	-0.0102235469967126	-0.006866562180221	0.1387045085430145	0.0016784900799393	0.0138857075944542	0.0361638814210891
3.3351999999999977	-0.0221255831420421	-0.0376897864043712	-0.1271076500415802	-0.0001525925472378	0.0114442640915513	0.0111390836536884
3.3451999999999975	-0.0193789601325988	-0.0294499136507511	-0.2406347841024398	0.0004577683284878	-0.0032043969258666	0.0035095727071166
3.3551999999999973	-0.0074769230559468	0.0019836705178022	0.1582360565662384	0.0077820988371968	0.0334172546863555	0.0358586981892585
3.3651999999999975	-0.0209048613905906	-0.0221255831420421	0.4478522837162018	0.0032043922692537	-0.0154116144403815	0.0126649858430027
3.3751999999999973	-0.0294499136507511	-0.0050354795530438	0.3276112079620361	-0.0041199382394552	0.0013733096420764	0.0129701662808656
3.3851999999999975	-0.0050354795530438	-0.0181582383811473	0.1112382709980011	0.0270084664225578	-0.0038147578015923	0.0202944967895746
3.3951999999999973	-0.02029450237751	-0.0318913571536541	-0.0599679574370384	-0.0010681338608264	-0.0013733142986893	0.0389105044305324
3.4051999999999976	-0.0270084701478481	-0.0318913571536541	-0.1063553839921951	0.012054624967277	0.018158234655857	-0.0016784947365522
3.4151999999999973	-0.0196841396391391	-0.0294499136507511	-0.1518272757530212	-0.0325017198920249	-0.0123598100617527	-0.026092929765582
3.4251999999999976	-0.0102235469967126	-0.0242618471384048	-0.1139848977327346	-0.0486762821674346	-0.0056458404287695	-0.0016784947365522
3.4351999999999974	-0.0105287274345755	-0.0242618471384048	-0.0871290192008018	-0.0071717426180839	-0.0010681338608264	0.0053406553342938
3.4451999999999976	-0.0120546296238899	0.0068665575236082	-0.1045242995023727	0.0093080010265111	0.0175478719174861	0.0013733096420764
3.4551999999999974	-0.0190737806260585	-0.0273136515170335	-0.1316853612661361	-0.0035095773637294	0.0126649858430027	0.0077820988371968
3.4651999999999976	-0.0151064340025186	-0.0770580619573593	-0.0636301264166832	-0.0126649904996156	0.0016784900799393	0.0422674864530563
3.4751999999999974	-0.0132753513753414	0.0035095727071166	0.063324935734272	-0.0224307645112276	-0.0166323371231555	-0.0129701709374785
3.4851999999999976	-0.0132753513753414	-0.0175478775054216	0.0141908880323171	-0.0022888556122779	0.0117494445294141	0.0065613770857453
3.4951999999999974	-0.017853058874607	-0.0294499136507511	-0.1316853612661361	-0.0090028252452611	-0.0205996818840503	0.026398105546832
3.505199999999997	-0.0196841396391391	0.0025940313935279	-0.1408407688140869	-0.0086976448073983	-0.0022888556122779	0.026398105546832
3.5151999999999974	-0.0111390883103013	0.0141908880323171	-0.0700389146804809	0.012054624967277	0.0053406553342938	0.0138857075944542
3.5251999999999972	-0.0267032906413078	-0.0279240123927593	0.0138857075944542	0.0160219706594944	0.0028992118313908	0.0175478719174861
3.5351999999999975	-0.02029450237751	0.0016784900799393	0.0709544494748115	0.0007629487663507	-0.0187685992568731	-0.0331120789051055
3.5451999999999972	-0.0215152241289615	-0.0090028252452611	0.025482565164566	-0.0114442687481641	-0.0010681338608264	0.012054624967277
3.5551999999999975	-0.0126649904996156	-0.0395208671689033	0.2632181346416473	-0.0019836751744151	0.0123598054051399	-0.0071717426180839
3.5651999999999973	-0.017853058874607	-0.0151064340025186	0.4475471079349518	-0.0053406599909067	0.0041199335828423	-0.0050354795530438
3.5751999999999975	-0.0105287274345755	-0.0248722080141305	0.1805142313241958	-0.0346379801630973	-0.0224307645112276	0.0148012489080429
3.5851999999999973	-0.0028992164880037	-0.009308005683124	-0.2656595706939697	0.009613181464374	-0.0923170819878578	0.0331120751798152
3.5951999999999975	-0.0099183665588498	-0.0257877483963966	-0.4203860461711883	0.0209048576653003	0.0758373364806175	0.0282291881740093
3.6051999999999973	-0.0169375166296958	-0.0163271557539701	-0.3447013199329376	-0.0169375166296958	0.0123598054051399	0.0172426924109458
3.6151999999999975	-0.022735945880413	0.0151064293459057	-0.0410467721521854	-0.0111390883103013	-0.0016784947365522	0.0401312261819839
3.6251999999999973	-0.0080872839316725	-0.0013733142986893	0.1420614868402481	-0.0273136515170335	0.0321965329349041	0.0154116097837686
3.635199999999997	-0.0077821034938097	-0.0157167948782444	0.3447012901306152	0.0035095727071166	0.0679026469588279	0.0102235423400998
3.6451999999999973	-0.0233463048934936	-0.0135805318132042	0.4264896512031555	-0.0184634178876876	0.0517280809581279	-0.0028992164880037
3.655199999999997	-0.025177389383316	0.0163271501660347	0.2711528241634369	0.0038147531449794	-0.0514229051768779	-0.0065613817423582
